<?xml version="1.0" encoding="UTF-8" standalone="no"?>
<!-- Created with Inkscape (http://www.inkscape.org/) -->

<svg
   width="16mm"
   height="16mm"
   viewBox="0 0 16 16"
   version="1.1"
   id="svg1"
   sodipodi:docname="action-draw-rectangle-symbolic.svg"
   inkscape:version="1.4 (86a8ad7, 2024-10-11)"
   xml:space="preserve"
   xmlns:inkscape="http://www.inkscape.org/namespaces/inkscape"
   xmlns:sodipodi="http://sodipodi.sourceforge.net/DTD/sodipodi-0.dtd"
   xmlns="http://www.w3.org/2000/svg"
   xmlns:svg="http://www.w3.org/2000/svg"><sodipodi:namedview
     id="namedview1"
     pagecolor="#ffffff"
     bordercolor="#000000"
     borderopacity="0.25"
     inkscape:showpageshadow="2"
     inkscape:pageopacity="0.0"
     inkscape:pagecheckerboard="0"
     inkscape:deskcolor="#d1d1d1"
     inkscape:document-units="mm"
     inkscape:zoom="3.09"
     inkscape:cx="54.692557"
     inkscape:cy="43.365696"
     inkscape:window-width="1996"
     inkscape:window-height="1224"
     inkscape:window-x="1512"
     inkscape:window-y="601"
     inkscape:window-maximized="0"
     inkscape:current-layer="layer1"
     showgrid="true"><inkscape:grid
       id="grid1"
       units="mm"
       originx="0"
       originy="0"
       spacingx="0.99999997"
       spacingy="0.99999997"
       empcolor="#0099e5"
       empopacity="0.30196078"
       color="#0099e5"
       opacity="0.14901961"
       empspacing="5"
       enabled="true"
       visible="true" /></sodipodi:namedview><defs
     id="defs1" /><g
     inkscape:label="Calque 1"
     inkscape:groupmode="layer"
     id="layer1"><g
       style="fill:#000000"
       id="g1"
       transform="matrix(0.13858838,0,0,0.13894195,3.2880417,0.27549865)"><path
         id="XMLID_1226_"
         d="M 78.8,25.5 56.7,3.2 C 55.9,2.4 54.9,2 53.8,2 H 16 c -2.2,0 -4,1.8 -4,4 v 80 c 0,2.2 1.8,4 4,4 h 60 c 2.2,0 4,-1.8 4,-4 V 28.3 c 0,-1.1 -0.4,-2.1 -1.2,-2.8 z M 72,30 H 52 V 10 h 0.2 z M 20,82 V 10 h 24 v 23.9 c 0,2.2 1.7,4.1 3.9,4.1 H 72 v 44 z" /></g><path
       style="fill:#000000;fill-opacity:0;stroke:#000000;stroke-width:1.01633;stroke-dashoffset:16.6413"
       d="M 5.8039469,4.2163359 H 2.4177486 l 0.043413,10.4718471 h 7.510414 l -0.043413,-2.468649"
       id="path1" /><path
       style="fill:#000000;fill-opacity:0;stroke:#000000;stroke-width:0.977;stroke-dashoffset:16.6413"
       d="m 9.9325781,-19.950782 -28.0852211,0.08562 c 0,0 -1.712536,-0.0231 -1.712513,2.311893 2.71e-4,26.9651852 -4e-6,54.971681 -4e-6,54.971681 0,0 0.513754,2.654398 3.168149,2.654397 4.62458,-10e-7 34.25027,0.08563 34.25027,0.08563 0,0 2.56877,0.513754 2.56877,-2.311894 v -17.81014"
       id="path2"
       sodipodi:nodetypes="ccscscsc" /></g></svg>
