<?xml version="1.0" encoding="UTF-8" standalone="no"?>
<!-- Created with Inkscape (http://www.inkscape.org/) -->

<svg
   width="16mm"
   height="16mm"
   viewBox="0 0 16 16"
   version="1.1"
   id="svg1"
   sodipodi:docname="action-draw-spline-symbolic.svg"
   inkscape:version="1.2.2 (b0a8486541, 2022-12-01)"
   xml:space="preserve"
   xmlns:inkscape="http://www.inkscape.org/namespaces/inkscape"
   xmlns:sodipodi="http://sodipodi.sourceforge.net/DTD/sodipodi-0.dtd"
   xmlns="http://www.w3.org/2000/svg"
   xmlns:svg="http://www.w3.org/2000/svg"><sodipodi:namedview
     id="namedview1"
     pagecolor="#ffffff"
     bordercolor="#000000"
     borderopacity="0.25"
     inkscape:showpageshadow="2"
     inkscape:pageopacity="0.0"
     inkscape:pagecheckerboard="0"
     inkscape:deskcolor="#d1d1d1"
     inkscape:document-units="mm"
     inkscape:zoom="9.3620938"
     inkscape:cx="48.226391"
     inkscape:cy="1.3885783"
     inkscape:window-width="1996"
     inkscape:window-height="1224"
     inkscape:window-x="1364"
     inkscape:window-y="380"
     inkscape:window-maximized="0"
     inkscape:current-layer="SVGRepo_iconCarrier"
     showgrid="true"><inkscape:grid
       id="grid1"
       units="mm"
       originx="0"
       originy="0"
       spacingx="0.99999997"
       spacingy="0.99999997"
       empcolor="#0099e5"
       empopacity="0.30196078"
       color="#0099e5"
       opacity="0.14901961"
       empspacing="5"
       enabled="true"
       visible="true" /></sodipodi:namedview><defs
     id="defs1" /><g
     inkscape:label="Calque 1"
     inkscape:groupmode="layer"
     id="layer1"><ellipse
       style="fill:none;fill-opacity:0.944223;stroke:#000000;stroke-width:0.671;stroke-dasharray:none;stroke-opacity:1"
       id="path1-3"
       cx="2.3580689"
       cy="13.588873"
       rx="1.5201318"
       ry="1.4802849" /><ellipse
       style="fill:none;fill-opacity:0.944223;stroke:#000000;stroke-width:0.671;stroke-dasharray:none;stroke-opacity:1"
       id="path1-6"
       cx="13.468969"
       cy="2.3980365"
       rx="1.5201318"
       ry="1.4802849" /><g
       style="fill:#000000"
       id="g1070"
       transform="matrix(0.24133744,0,0,0.28178882,-1.438691,-2.8704004)"><g
         id="SVGRepo_bgCarrier"
         stroke-width="0" /><g
         id="SVGRepo_tracerCarrier"
         stroke-linecap="round"
         stroke-linejoin="round" /><g
         id="SVGRepo_iconCarrier"> <path
   fill="#000000"
   fill-opacity="1"
   stroke-width="0.2"
   stroke-linejoin="round"
   d="m 20.9655,24.509735 c 0.04224,-0.353727 -0.104553,-0.825514 -0.09385,-1.231156 L 51.670351,19.11146 C 55.575708,18.397981 57.061006,18.1864 58.144906,18 c 0.24404,0.935797 0.296222,1.091192 0.558316,2.176894 C 56.332173,20.848878 36.995233,26.212171 36.25,33 35.484848,39.969259 49,38 49,45 c 0,4.4239 -8.8682,8.2363 -16.7965,10.7606 l 24.649347,-2.310533 c 0.130868,0.324497 0.05072,1.086489 0.0501,1.404468 L 24.9161,57.8396 c -2.9312,0.7497 -5.247315,1.213588 -5.247315,1.213588 -0.391218,-1.076253 -0.494132,-1.48377 -0.823266,-2.552989 C 22.845519,55.500199 45.5,49 45.5,45 45.5,41 33,42 33,33 33,28.1682 41.473861,23.401293 49.049256,20.723125 Z"
   data-darkreader-inline-fill=""
   id="path1057"
   sodipodi:nodetypes="cccccssccccccsscc"
   style="stroke:#000000;stroke-width:0.383465;stroke-dasharray:none;stroke-opacity:1" /> </g></g><ellipse
       style="fill:none;fill-opacity:0.944223;stroke:#000000;stroke-width:0.378581;stroke-dasharray:none;stroke-opacity:1"
       id="path1-6-3"
       cx="2.6391807"
       cy="3.8717747"
       rx="0.85766464"
       ry="0.83518285" /><ellipse
       style="fill:none;fill-opacity:0.944223;stroke:#000000;stroke-width:0.378581;stroke-dasharray:none;stroke-opacity:1"
       id="path1-6-3-6"
       cx="13.226208"
       cy="12.124023"
       rx="0.85766464"
       ry="0.83518285" /></g></svg>
