<?xml version="1.0" encoding="UTF-8" standalone="no"?>
<!-- Created with Inkscape (http://www.inkscape.org/) -->

<svg
   width="16mm"
   height="16mm"
   viewBox="0 0 16 16"
   version="1.1"
   id="svg1"
   sodipodi:docname="action-3d-helix-symbolic.svg"
   inkscape:version="1.2.2 (b0a8486541, 2022-12-01)"
   xml:space="preserve"
   xmlns:inkscape="http://www.inkscape.org/namespaces/inkscape"
   xmlns:sodipodi="http://sodipodi.sourceforge.net/DTD/sodipodi-0.dtd"
   xmlns="http://www.w3.org/2000/svg"
   xmlns:svg="http://www.w3.org/2000/svg"><sodipodi:namedview
     id="namedview1"
     pagecolor="#ffffff"
     bordercolor="#000000"
     borderopacity="0.25"
     inkscape:showpageshadow="2"
     inkscape:pageopacity="0.0"
     inkscape:pagecheckerboard="0"
     inkscape:deskcolor="#d1d1d1"
     inkscape:document-units="mm"
     inkscape:zoom="15.563439"
     inkscape:cx="33.251007"
     inkscape:cy="31.548298"
     inkscape:window-width="1996"
     inkscape:window-height="1224"
     inkscape:window-x="1645"
     inkscape:window-y="496"
     inkscape:window-maximized="0"
     inkscape:current-layer="g1592"
     showgrid="true"><inkscape:grid
       id="grid1"
       units="mm"
       originx="0"
       originy="0"
       spacingx="0.99999997"
       spacingy="0.99999997"
       empcolor="#0099e5"
       empopacity="0.30196078"
       color="#0099e5"
       opacity="0.14901961"
       empspacing="5"
       enabled="true"
       visible="true" /></sodipodi:namedview><defs
     id="defs1" /><g
     inkscape:label="Calque 1"
     inkscape:groupmode="layer"
     id="layer1"><g
       style="fill:#000000"
       id="g4521"
       transform="matrix(0.41341146,0,0,0.41341146,-83.054864,-103.17679)"><g
         id="g4472"
         transform="matrix(0.06431188,0,0,0.06431188,204.39872,252.66143)">
	<g
   id="g4470">
		
	<g
   style="fill:#000000"
   id="g11091"
   transform="matrix(29.47939,0,0,29.47939,-3107.8371,-3680.7635)"><g
     id="g1592"
     transform="matrix(1.275874,0,0,1.275874,-25.195075,-88.617689)"><path
       d="m 104.59901,172.58523 0.47571,-0.0715 0.50244,-0.0765 0.52381,-0.0806 0.5392,-0.0837 0.54842,-0.086 0.55134,-0.0871 0.54829,-0.0874 0.5397,-0.0865 0.52598,-0.085 0.50792,-0.0827 0.4992,-0.0859 0.49889,-0.0949 0.49334,-0.10354 0.48207,-0.11152 0.46488,-0.11868 0.44194,-0.12485 0.41329,-0.12983 0.37965,-0.13332 0.34159,-0.13537 0.29984,-0.136 0.25554,-0.13499 0.20971,-0.13264 0.16322,-0.12896 0.11736,-0.12404 0.0728,-0.11818 0.0303,-0.11145"
       class="s5"
       id="path1343"
       style="stroke-width:0.113;stroke-dasharray:none" /><path
       d="m 105.66787,176.68655 0.0204,0.0699 0.0415,0.0708 0.0621,0.0708 0.0821,0.07 0.10073,0.0687 0.11787,0.0664 0.13301,0.0636 0.14616,0.0603 0.15693,0.0564 0.16546,0.0523 0.17668,0.0534 0.19144,0.0595 0.20522,0.0653 0.21755,0.0709 0.22813,0.076 0.23661,0.0803"
       class="s5"
       id="path1345"
       style="stroke-width:0.113;stroke-dasharray:none" /><path
       d="m 114.62051,176.61684 0.17811,-0.11102 0.14254,-0.11794 0.10293,-0.12402 0.0599,-0.12928 0.014,-0.13326"
       class="s5"
       id="path1347"
       style="stroke-width:0.113;stroke-dasharray:none" /><path
       d="m 101.89568,176.73079 0.003,-0.0411 0.0505,-0.0397 0.0955,-0.0379 0.13744,-0.0356 0.17555,-0.0333 0.20951,-0.0305 0.24572,-0.0327 0.28763,-0.0395 0.32937,-0.0465 0.36999,-0.0533 0.40855,-0.0599 0.44413,-0.066"
       class="s5"
       id="path1349"
       style="stroke-width:0.113;stroke-dasharray:none" /><path
       d="m 110.72073,175.24409 0.0934,0.0615 0.13132,0.10099 0.11506,0.10522 0.097,0.1084 0.0776,0.11033 0.0571,0.1112 0.0363,0.11071 0.0154,0.10903"
       class="s5"
       id="path1351"
       style="stroke-width:0.113;stroke-dasharray:none" /><path
       d="m 111.25208,169.88278 -0.005,-0.0861 -0.0231,-0.0916 -0.0421,-0.0965 -0.062,-0.10062 -0.0822,-0.10373 -0.10217,-0.10597 -0.12161,-0.10697 -0.13998,-0.10684 -0.157,-0.1056 -0.17207,-0.10304 -0.18503,-0.0995 -0.19561,-0.0949 -0.20371,-0.0895 -0.20927,-0.0834 -0.21244,-0.0768 -0.21325,-0.0699"
       class="s5"
       id="path1353"
       style="stroke-width:0.113;stroke-dasharray:none" /><path
       d="m 110.4549,170.80629 0.16236,-0.10964 0.14597,-0.11052 0.12801,-0.11021 0.10909,-0.10864 0.0893,-0.10598 0.0694,-0.10223 0.0499,-0.0977 0.0306,-0.0923 0.0125,-0.0863"
       class="sf"
       id="path1355"
       style="stroke-width:0.139;stroke-dasharray:none" /><path
       d="m 109.88997,171.1181 0.19899,-0.1 0.18913,-0.10429 0.17681,-0.10753"
       class="sf"
       id="path1357"
       style="stroke-width:0.139;stroke-dasharray:none" /><path
       d="m 109.68359,171.21286 0.20638,-0.0948"
       class="sf"
       id="path1359"
       style="stroke-width:0.139;stroke-dasharray:none" /><path
       d="m 109.47226,171.3017 0.21133,-0.0888"
       class="sf"
       id="path1361"
       style="stroke-width:0.139;stroke-dasharray:none" /><path
       d="m 109.25851,171.38399 0.21375,-0.0823"
       class="sf"
       id="path1363"
       style="stroke-width:0.139;stroke-dasharray:none" /><path
       d="m 109.04465,171.45931 0.21386,-0.0753"
       class="sf"
       id="path1365"
       style="stroke-width:0.139;stroke-dasharray:none" /><path
       d="m 113.58877,174.48571 -0.37964,0.13333 -0.41335,0.12976 -0.44188,0.12486 -0.46488,0.11873 -0.48206,0.11151 -0.49335,0.10355 -0.49895,0.0949 -0.4992,0.0859 -0.50792,0.0827 -0.526,0.085 -0.53963,0.0866 -0.54835,0.0873 -0.55134,0.0871 -0.54835,0.0859 -0.53919,0.0836 -0.52382,0.0806 -0.5025,0.0765 -0.47571,0.0716"
       class="sf"
       id="path1367"
       style="stroke-width:0.139;stroke-dasharray:none" /><path
       d="m 113.9303,174.35028 -0.34153,0.13543"
       class="sf"
       id="path1369"
       style="stroke-width:0.139;stroke-dasharray:none" /><path
       d="m 114.23021,174.21434 -0.29991,0.13594"
       class="sf"
       id="path1371"
       style="stroke-width:0.139;stroke-dasharray:none" /><path
       d="m 114.48576,174.07928 -0.25555,0.13506"
       class="sf"
       id="path1373"
       style="stroke-width:0.139;stroke-dasharray:none" /><path
       d="m 114.6954,173.94665 -0.20964,0.13263"
       class="sf"
       id="path1375"
       style="stroke-width:0.139;stroke-dasharray:none" /><path
       d="m 114.85868,173.81776 -0.16328,0.12889"
       class="sf"
       id="path1377"
       style="stroke-width:0.139;stroke-dasharray:none" /><path
       d="m 114.97599,173.69372 -0.11731,0.12404"
       class="sf"
       id="path1379"
       style="stroke-width:0.139;stroke-dasharray:none" /><path
       d="m 115.04881,173.57553 -0.0728,0.11819"
       class="sf"
       id="path1381"
       style="stroke-width:0.139;stroke-dasharray:none" /><path
       d="m 115.02558,169.8343 0.0537,3.62979 -0.0304,0.11144"
       class="sf"
       id="path1383"
       style="stroke-width:0.139;stroke-dasharray:none" /><path
       d="m 115.01561,169.72336 0.01,0.11094"
       class="sf"
       id="path1385"
       style="stroke-width:0.139;stroke-dasharray:none" /><path
       d="m 114.96354,169.60679 0.052,0.11657"
       class="sf"
       id="path1387"
       style="stroke-width:0.139;stroke-dasharray:none" /><path
       d="m 114.99486,180.01767 -0.14253,0.11793 -0.17812,0.11101 -1.74356,-0.0354 -1.74349,-0.0354 -0.0536,-3.62976 0.076,-0.0861 0.0607,-0.0923 0.0435,-0.0977 0.025,-0.10235 0.006,-0.10622"
       class="sf"
       id="path1389"
       style="stroke-width:0.139;stroke-dasharray:none" /><path
       d="m 115.09779,179.89356 -0.10293,0.12411"
       class="sf"
       id="path1391"
       style="stroke-width:0.03871606;stroke-dasharray:none" /><path
       d="m 115.15759,179.76429 -0.0598,0.12927"
       class="sf"
       id="path1393"
       style="stroke-width:0.03871606;stroke-dasharray:none" /><path
       d="m 115.11791,176.00132 0.0536,3.62977 -0.014,0.1332"
       class="sf"
       id="path1395"
       style="stroke-width:0.03871606;stroke-dasharray:none" /><path
       d="m 115.08402,175.86539 0.0339,0.13593"
       class="sf"
       id="path1397"
       style="stroke-width:0.139;stroke-dasharray:none" /><path
       d="m 108.82698,171.53332 0.21767,-0.074"
       class="sf"
       id="path1399"
       style="stroke-width:0.139;stroke-dasharray:none" /><path
       d="m 108.60158,171.61132 0.2254,-0.078"
       class="sf"
       id="path1401"
       style="stroke-width:0.139;stroke-dasharray:none" /><path
       d="m 108.37039,171.69286 0.23119,-0.0815"
       class="sf"
       id="path1403"
       style="stroke-width:0.139;stroke-dasharray:none" /><path
       d="m 108.13553,171.77722 0.23486,-0.0843"
       class="sf"
       id="path1405"
       style="stroke-width:0.139;stroke-dasharray:none" /><path
       d="m 107.89935,171.86357 0.23618,-0.0863"
       class="sf"
       id="path1407"
       style="stroke-width:0.139;stroke-dasharray:none" /><path
       d="m 107.66454,171.95109 0.23481,-0.0874"
       class="sf"
       id="path1409"
       style="stroke-width:0.139;stroke-dasharray:none" /><path
       d="m 106.64017,172.27288 1.02437,-0.32179"
       class="sf"
       id="path1411"
       style="stroke-width:0.139;stroke-dasharray:none" /><path
       d="m 106.10097,172.3566 1.13152,-0.26975"
       class="sf"
       id="path1413"
       style="stroke-width:0.03898784;stroke-dasharray:none" /><path
       d="m 105.07472,172.51366 1.54414,-0.28054"
       class="sf"
       id="path1415"
       style="stroke-width:0.03898784;stroke-dasharray:none" /><path
       d="m 104.59901,172.58523 0.58212,-0.0909"
       class="sf"
       id="path1417"
       style="stroke-width:0.03898784;stroke-dasharray:none" /><path
       d="m 106.84432,175.92339 -0.19007,0.079 -0.17482,0.0746 -0.1583,0.0696 -0.14079,0.0643 -0.12297,0.0585 -0.10505,0.0524 -0.0893,0.0516 -0.0748,0.0558 -0.0583,0.0598 -0.0404,0.063 -0.0209,0.066 -5.4e-4,0.0683"
       class="sf"
       id="path1419"
       style="stroke-width:0.139;stroke-dasharray:none" /><path
       d="m 107.02243,175.85118 -0.17811,0.0722"
       class="sf"
       id="path1421"
       style="stroke-width:0.03898784;stroke-dasharray:none" /><path
       d="m 104.15489,172.65127 0.44412,-0.066"
       class="sf"
       id="path1423"
       style="stroke-width:0.139;stroke-dasharray:none" /><path
       d="m 103.74626,172.71108 0.40863,-0.0598"
       class="sf"
       id="path1425"
       style="stroke-width:0.139;stroke-dasharray:none" /><path
       d="m 103.37627,172.76434 0.36999,-0.0532"
       class="sf"
       id="path1427"
       style="stroke-width:0.139;stroke-dasharray:none" /><path
       d="m 103.0469,172.81076 0.32937,-0.0465"
       class="sf"
       id="path1429"
       style="stroke-width:0.139;stroke-dasharray:none" /><path
       d="m 102.75932,172.85032 0.28758,-0.0396"
       class="sf"
       id="path1431"
       style="stroke-width:0.139;stroke-dasharray:none" /><path
       d="m 102.12855,172.94682 0.17556,-0.0333 0.20945,-0.0306 0.24576,-0.0327"
       class="sf"
       id="path1433"
       style="stroke-width:0.139;stroke-dasharray:none" /><path
       d="m 101.99112,172.98246 0.13743,-0.0356"
       class="sf"
       id="path1435"
       style="stroke-width:0.139;stroke-dasharray:none" /><path
       d="m 101.89561,173.0202 0.0955,-0.0378"
       class="sf"
       id="path1437"
       style="stroke-width:0.139;stroke-dasharray:none" /><path
       d="m 101.84516,173.05989 0.0505,-0.0397"
       class="sf"
       id="path1439"
       style="stroke-width:0.139;stroke-dasharray:none" /><path
       d="m 101.84204,173.10107 0.003,-0.0412"
       class="sf"
       id="path1441"
       style="stroke-width:0.139;stroke-dasharray:none" /><path
       d="m 101.89568,176.73079 -0.0536,-3.62972"
       class="sf"
       id="path1443"
       style="stroke-width:0.139;stroke-dasharray:none" /><path
       d="m 114.8669,169.48557 0.0967,0.12122"
       class="sf"
       id="path1445"
       style="stroke-width:0.139;stroke-dasharray:none" /><path
       d="m 114.72417,169.36053 0.14273,0.12504"
       class="sf"
       id="path1447"
       style="stroke-width:0.139;stroke-dasharray:none" /><path
       d="m 114.53461,169.233 0.18956,0.12753"
       class="sf"
       id="path1449"
       style="stroke-width:0.139;stroke-dasharray:none" /><path
       d="m 114.29856,169.1043 0.23605,0.1287"
       class="sf"
       id="path1451"
       style="stroke-width:0.139;stroke-dasharray:none" /><path
       d="m 114.01728,168.97577 0.28128,0.12853"
       class="sf"
       id="path1453"
       style="stroke-width:0.139;stroke-dasharray:none" /><path
       d="m 109.17087,171.41483 -0.0451,-3.05289 0.48823,-0.16104 0.48824,-0.16111 0.49496,0.0731 0.49304,0.0822 0.48568,0.0909 0.47254,0.0992 0.45359,0.10691 0.42893,0.11368 0.39871,0.11932 0.36352,0.12378 0.32414,0.12685"
       class="sf"
       id="path1455"
       style="stroke-width:0.139;stroke-dasharray:none" /><path
       d="m 115.0014,175.72826 0.0827,0.13713"
       class="sf"
       id="path1457"
       style="stroke-width:0.139;stroke-dasharray:none" /><path
       d="m 114.87014,175.59139 0.13126,0.13687"
       class="sf"
       id="path1459"
       style="stroke-width:0.139;stroke-dasharray:none" /><path
       d="m 111.17284,179.20703 -0.0586,-0.0654 -0.115,-0.10516 -0.13133,-0.10104 -0.14559,-0.0958 -0.15768,-0.0899 -0.16746,-0.0834 -0.17493,-0.0765 -0.18521,-0.0752 -0.19918,-0.0794 -0.21206,-0.0829 -0.22335,-0.0858 -0.23274,-0.0877 -0.23998,-0.089 -0.24464,-0.0891 -0.24676,-0.0884 -0.24603,-0.0867 -0.24259,-0.0839 -0.46125,-0.12946"
       class="sf"
       id="path1461"
       style="stroke-width:0.139;stroke-dasharray:none" /><path
       d="m 114.46732,175.32464 0.22402,0.13175 0.1788,0.135"
       class="sf"
       id="path1463"
       style="stroke-width:0.139;stroke-dasharray:none" /><path
       d="m 114.20137,175.19761 0.26595,0.12703"
       class="sf"
       id="path1465"
       style="stroke-width:0.139;stroke-dasharray:none" /><path
       d="m 113.89734,175.07656 0.30403,0.12105"
       class="sf"
       id="path1467"
       style="stroke-width:0.139;stroke-dasharray:none" /><path
       d="m 113.56006,174.96249 0.33728,0.11407"
       class="sf"
       id="path1469"
       style="stroke-width:0.139;stroke-dasharray:none" /><path
       d="m 113.19462,174.85634 0.36544,0.10615"
       class="sf"
       id="path1471"
       style="stroke-width:0.139;stroke-dasharray:none" /><path
       d="m 112.80624,174.75871 0.38838,0.0976"
       class="sf"
       id="path1473"
       style="stroke-width:0.139;stroke-dasharray:none" /><path
       d="m 112.78058,174.75311 0.0256,0.006"
       class="sf"
       id="path1475"
       style="stroke-width:0.139;stroke-dasharray:none" /><path
       d="m 107.71308,177.66109 -0.83843,-0.18341"
       class="sf"
       id="path1477"
       style="stroke-width:0.139;stroke-dasharray:none" /><path
       d="m 107.48493,177.58515 -1.25344,-0.22066"
       class="sf"
       id="path1479"
       style="stroke-width:0.139;stroke-dasharray:none" /><path
       d="m 107.26739,177.51425 -1.66873,-0.24128"
       class="sf"
       id="path1481"
       style="stroke-width:0.139;stroke-dasharray:none" /><path
       d="m 107.06218,177.44889 -2.36069,-0.28377"
       class="sf"
       id="path1483"
       style="stroke-width:0.139;stroke-dasharray:none" /><path
       d="m 101.94134,176.77308 -0.0457,-0.0423"
       class="sf"
       id="path1485"
       style="stroke-width:0.139;stroke-dasharray:none" /><path
       d="m 102.03597,176.81594 -0.0946,-0.0428"
       class="sf"
       id="path1487"
       style="stroke-width:0.139;stroke-dasharray:none" /><path
       d="m 102.17882,176.85893 -0.14285,-0.043"
       class="sf"
       id="path1489"
       style="stroke-width:0.139;stroke-dasharray:none" /><path
       d="m 102.6009,176.94353 -0.23282,-0.0419 -0.18926,-0.0426"
       class="sf"
       id="path1491"
       style="stroke-width:0.139;stroke-dasharray:none" /><path
       d="m 103.18158,177.02321 -0.30806,-0.039 -0.27262,-0.0406"
       class="sf"
       id="path1493"
       style="stroke-width:0.139;stroke-dasharray:none" /><path
       d="m 103.52012,177.06028 -0.33854,-0.037"
       class="sf"
       id="path1495"
       style="stroke-width:0.139;stroke-dasharray:none" /><path
       d="m 103.884,177.09517 -0.36388,-0.0349"
       class="sf"
       id="path1497"
       style="stroke-width:0.139;stroke-dasharray:none" /><path
       d="M 105.48097,177.23185 103.884,177.09517"
       class="sf"
       id="path1499"
       style="stroke-width:0.139;stroke-dasharray:none" /><rect
       style="fill:none;stroke:#000000;stroke-width:0.415787;stroke-dasharray:none;stroke-opacity:1"
       id="rect2009"
       width="3.7924371"
       height="3.5104675"
       x="111.22695"
       y="176.58324" /></g></g></g>
</g></g></g><style
     id="style1331"><![CDATA[
polygon {
shape-rendering:crispEdges;
stroke-width:0.351347;
}
.s0 {
stroke:#000000;
stroke-width:0.311040;
stroke-linecap:round;
stroke-linejoin:round;
fill:none;
}
.s1 {
stroke:#000000;
stroke-width:0.311040;
stroke-linecap:round;
stroke-linejoin:round;
fill:none;
}
.s2 {
stroke:#19b219;
stroke-width:0.311040;
stroke-linecap:round;
stroke-linejoin:round;
fill:none;
}
.s3 {
stroke:#7f4c00;
stroke-width:0.311040;
stroke-linecap:round;
stroke-linejoin:round;
fill:none;
}
.s4 {
stroke:#00cc00;
stroke-width:0.311040;
stroke-linecap:round;
stroke-linejoin:round;
fill:none;
}
.s5 {
stroke:#000000;
stroke-width:0.207360;
stroke-linecap:round;
stroke-linejoin:round;
fill:none;
}
.s6 {
stroke:#ff19ff;
stroke-width:0.207360;
stroke-linecap:round;
stroke-linejoin:round;
fill:none;
}
.s7 {
stroke:#ff0000;
stroke-width:0.311040;
stroke-linecap:round;
stroke-linejoin:round;
fill:none;
}
.s8 {
stroke:#ffff00;
stroke-width:0.311040;
stroke-linecap:round;
stroke-linejoin:round;
fill:none;
}
.s9 {
stroke:#001919;
stroke-width:0.207360;
stroke-linecap:round;
stroke-linejoin:round;
fill:none;
}
.sa {
stroke:#006666;
stroke-width:0.207360;
stroke-linecap:round;
stroke-linejoin:round;
fill:none;
}
.sb {
stroke:#00ffff;
stroke-width:0.622080;
stroke-linecap:round;
stroke-linejoin:round;
fill:none;
}
.sc {
stroke:#ff0000;
stroke-width:1.658880;
stroke-linecap:round;
stroke-linejoin:round;
fill:none;
}
.sd {
stroke:#191919;
stroke-width:0.207360;
stroke-linecap:round;
stroke-linejoin:round;
fill:none;
}
.se {
stroke:#000000;
stroke-width:0.207360;
stroke-linecap:round;
stroke-linejoin:round;
stroke-dasharray:3.110,3.110;
fill:none;
}
.sf {
stroke:#000000;
stroke-width:0.622080;
stroke-linecap:round;
stroke-linejoin:round;
fill:none;
}
]]></style></svg>
