<?xml version="1.0" encoding="UTF-8" standalone="no"?>
<!-- Created with Inkscape (http://www.inkscape.org/) -->

<svg
   width="16mm"
   height="16mm"
   viewBox="0 0 16 16"
   version="1.1"
   id="svg1"
   sodipodi:docname="action-3d-extrude-symbolic.svg"
   inkscape:version="1.2.2 (b0a8486541, 2022-12-01)"
   xml:space="preserve"
   xmlns:inkscape="http://www.inkscape.org/namespaces/inkscape"
   xmlns:sodipodi="http://sodipodi.sourceforge.net/DTD/sodipodi-0.dtd"
   xmlns="http://www.w3.org/2000/svg"
   xmlns:svg="http://www.w3.org/2000/svg"><sodipodi:namedview
     id="namedview1"
     pagecolor="#ffffff"
     bordercolor="#000000"
     borderopacity="0.25"
     inkscape:showpageshadow="2"
     inkscape:pageopacity="0.0"
     inkscape:pagecheckerboard="0"
     inkscape:deskcolor="#d1d1d1"
     inkscape:document-units="mm"
     inkscape:zoom="7.7817193"
     inkscape:cx="12.400858"
     inkscape:cy="42.407081"
     inkscape:window-width="1996"
     inkscape:window-height="1224"
     inkscape:window-x="1749"
     inkscape:window-y="517"
     inkscape:window-maximized="0"
     inkscape:current-layer="g11091"
     showgrid="true"><inkscape:grid
       id="grid1"
       units="mm"
       originx="0"
       originy="0"
       spacingx="0.99999997"
       spacingy="0.99999997"
       empcolor="#0099e5"
       empopacity="0.30196078"
       color="#0099e5"
       opacity="0.14901961"
       empspacing="5"
       enabled="true"
       visible="true" /></sodipodi:namedview><defs
     id="defs1" /><g
     inkscape:label="Calque 1"
     inkscape:groupmode="layer"
     id="layer1"><g
       style="fill:#000000"
       id="g4521"
       transform="matrix(0.41341146,0,0,0.41341146,-83.054864,-103.17679)"><g
         id="g4472"
         transform="matrix(0.06431188,0,0,0.06431188,204.39872,252.66143)">
	<g
   id="g4470">
		
	<g
   style="fill:#000000"
   id="g11091"
   transform="matrix(29.47939,0,0,29.47939,-3107.8371,-3680.7635)"><path
     color-rendering="auto"
     image-rendering="auto"
     shape-rendering="auto"
     color-interpolation="sRGB"
     d="m 122.29453,124.67229 c -0.0118,3.9e-4 -0.0236,0.002 -0.0353,0.003 H 110.5509 c -0.0866,0 -0.1696,0.0344 -0.23076,0.0957 l -5.22224,5.22224 c -0.0611,0.0611 -0.0955,0.1442 -0.0953,0.23076 v 11.75029 c 0,0.18023 0.14617,0.3264 0.3264,0.3264 h 11.75003 c 0.0865,0 0.16959,-0.0344 0.23076,-0.0957 l 5.22226,-5.22224 c 0.0613,-0.0611 0.0957,-0.14421 0.0957,-0.23076 v -11.70025 c 0.009,-0.0583 0.002,-0.11795 -0.0198,-0.17265 -9.4e-4,-0.002 -0.002,-0.006 -0.003,-0.008 -0.0527,-0.12339 -0.17559,-0.20191 -0.30968,-0.19799 z m -11.60852,0.65597 h 10.82696 l -4.56948,4.56947 h -10.82695 z m 11.28854,0.46154 v 10.82694 l -4.56948,4.56945 v -10.82694 z m -11.42862,0.18661 c -0.18012,0.002 -0.32398,0.15087 -0.32144,0.33096 v 2.61112 c -0.002,0.18024 0.14153,0.32848 0.32175,0.33104 0.18024,0.002 0.32848,-0.14154 0.33103,-0.32177 6e-5,-0.002 6e-5,-0.007 0,-0.009 v -2.61112 c 0.002,-0.18024 -0.14151,-0.32841 -0.32182,-0.33096 -0.003,-1.3e-4 -0.007,-1.3e-4 -0.009,-8e-5 z m -4.2608,5.19373 9.88636,-0.0434 -0.16002,9.92467 -9.77202,-0.0703 z m 4.2608,0.0285 c -0.18012,0.002 -0.32398,0.15086 -0.32144,0.33096 v 1.95834 c -0.002,0.18023 0.14153,0.32849 0.32175,0.33103 0.18024,0.002 0.32848,-0.14152 0.33103,-0.32176 6e-5,-0.002 6e-5,-0.007 0,-0.009 v -1.95833 c 0.002,-0.18024 -0.14151,-0.32841 -0.32182,-0.33096 -0.003,-1.3e-4 -0.007,-1.3e-4 -0.009,-6e-5 z m 0,3.91668 c -0.18012,0.002 -0.32398,0.15086 -0.32144,0.33096 v 1.17044 l -1.20993,1.20994 c -0.13003,0.12486 -0.13427,0.33147 -0.009,0.4615 0.12487,0.13004 0.33148,0.13428 0.46151,0.009 0.003,-0.002 0.007,-0.007 0.009,-0.009 l 1.20993,-1.20993 h 1.17043 c 0.18024,0.002 0.32847,-0.14151 0.33103,-0.32175 0.002,-0.18023 -0.14152,-0.32848 -0.32176,-0.33102 -0.002,-7e-5 -0.007,-7e-5 -0.009,0 h -0.97916 v -0.97918 c 0.002,-0.18023 -0.14153,-0.3284 -0.32183,-0.33096 -0.003,-6e-5 -0.007,-6e-5 -0.009,0 z m 3.26885,1.31014 c -0.18023,-0.002 -0.32846,0.14152 -0.33103,0.32174 -0.002,0.18024 0.14154,0.32849 0.32177,0.33103 0.002,8e-5 0.007,8e-5 0.009,0 h 1.95834 c 0.18023,0.002 0.32847,-0.14151 0.33103,-0.32175 0.002,-0.18023 -0.14153,-0.32848 -0.32175,-0.33102 -0.002,-7e-5 -0.007,-7e-5 -0.009,0 z m 4.56946,0 c -0.18023,-0.002 -0.32847,0.14152 -0.33101,0.32174 -0.002,0.18024 0.14152,0.32849 0.32176,0.33103 0.002,8e-5 0.007,8e-5 0.009,0 h 2.61112 c 0.18023,0.002 0.32848,-0.14151 0.33102,-0.32175 0.002,-0.18023 -0.14153,-0.32848 -0.32176,-0.33102 -0.002,-7e-5 -0.007,-7e-5 -0.009,0 z m -10.45086,2.60799 c -0.0848,0.002 -0.16529,0.038 -0.22443,0.0988 l -1.30557,1.30555 c -0.13004,0.12489 -0.13428,0.33149 -0.009,0.46153 0.12488,0.13003 0.3315,0.13427 0.46152,0.009 l 0.009,-0.009 1.30558,-1.30557 c 0.12924,-0.12566 0.13218,-0.33233 0.007,-0.46158 -0.0637,-0.0657 -0.15209,-0.10157 -0.24361,-0.0988 z"
     id="path11083"
     sodipodi:nodetypes="ccscccssscssccccccccccccccccccscccccccccccccscccccccccsccccscccccccscccsccccscccsccccccsccccccccs"
     style="stroke-width:0.0652784" /></g></g>
</g></g></g></svg>
